<svg width="106" height="30" viewBox="0 0 1200 340" fill="none" xmlns="http://www.w3.org/2000/svg">
    <g clip-path="url(#clip0_2301_10534)">
        <path d="M157.075 339.602C111.779 339.602 78.9723 320.318 54.5455 291.11H50.5138L35.415 333.761H0V198.128H36.3636C58.5771 262.384 112.253 297.432 157.075 297.432C192.095 297.432 209.881 282.148 209.881 258.383C209.881 238.138 198.34 226.935 185.059 221.094C157.549 208.931 102.055 201.329 61.7391 182.924C31.5415 169.001 7.19368 142.514 7.19368 96.6634C7.11462 39.0495 51.0672 0 110.909 0C149.96 0 175.731 16.644 193.913 40.0097H198.34L210.751 1.76043H244.032V116.268H207.668C186.798 70.8972 152.648 42.1702 111.383 42.1702C83.3992 42.1702 71.8577 55.2134 71.8577 75.8584C71.8577 94.7429 82.9249 103.705 98.0237 110.027C128.221 122.59 188.063 129.791 230.672 153.157C257.312 167.961 274.625 198.528 274.625 239.818C274.625 301.833 224.901 339.522 156.996 339.522L157.075 339.602Z" fill="white"/>
        <path d="M501.58 6.72168C583.24 6.72168 622.686 38.1693 622.686 84.4205C622.686 127.071 594.307 150.917 545.453 160.759V164.84C594.228 171.562 635.098 191.806 635.098 244.779C635.098 303.193 584.505 332.801 496.679 332.801H293.438V294.631L324.505 292.871C348.457 291.511 354.228 284.309 354.228 260.543V79.0592C354.228 55.2934 348.457 48.0917 324.505 46.7314L293.438 44.9709V6.72168H501.58ZM438.497 60.1746V145.555H486.402C519.208 145.555 533.438 130.272 533.438 95.2231C533.438 62.4152 521.422 45.8511 486.402 45.8511H451.777C442.449 45.8511 438.497 48.5718 438.497 60.2546V60.1746ZM451.856 293.751H490.908C530.829 293.751 545.928 274.867 545.928 238.058C545.928 201.249 531.303 184.605 488.22 184.605H438.497V279.348C438.497 291.03 442.528 293.751 451.777 293.751H451.856Z" fill="white"/>
        <path d="M684.981 46.7314L653.914 44.9709V6.72168H859.843V44.8909L828.776 46.6513C804.823 48.0117 799.052 55.2134 799.052 78.9792V279.348C799.052 291.03 803.084 293.751 812.333 293.751H848.301C899.369 293.751 914.388 278.067 926.878 228.135C929.961 214.212 933.519 189.086 934.388 178.763H969.882V332.801H653.914V294.631L684.981 292.871C708.934 291.511 714.705 284.309 714.705 260.543V79.0592C714.705 55.2934 708.934 48.0917 684.981 46.7314Z" fill="white"/>
        <path d="M1025.22 46.7314L994.148 44.9709V6.72168H1200.08V44.8909L1169.01 46.6513C1145.06 48.0117 1139.29 55.2134 1139.29 78.9792V260.463C1139.29 284.229 1145.06 291.431 1169.01 292.791L1200.08 294.551V332.721H994.148V294.551L1025.22 292.791C1049.17 291.431 1054.94 284.229 1054.94 260.463V79.0592C1054.94 55.2934 1049.17 48.0917 1025.22 46.7314Z" fill="white"/>
    </g>
    <defs>
        <clipPath id="clip0_2301_10534">
            <rect width="1200" height="339.602" fill="white"/>
        </clipPath>
    </defs>
</svg>
